<?xml version="1.0"?>
<svg xmlns="http://www.w3.org/2000/svg" viewBox="0 0 1330 620" width="1330" height="620" font-family="&#39;Helvetica Neue&#39;,Arial,sans-serif"><defs><marker id="arrow-ink" viewBox="0 0 10 10" markerWidth="7.2" markerHeight="7.2" refX="8" refY="5" orient="auto-start-reverse"><path d="M0.5,1 L9,5 L0.5,9 L3,5 Z" fill="#26313d"></path></marker><marker id="arrow-gry" viewBox="0 0 10 10" markerWidth="7.2" markerHeight="7.2" refX="8" refY="5" orient="auto-start-reverse"><path d="M0.5,1 L9,5 L0.5,9 L3,5 Z" fill="#8f99a2"></path></marker><marker id="arrow-vrm" viewBox="0 0 10 10" markerWidth="7.2" markerHeight="7.2" refX="8" refY="5" orient="auto-start-reverse"><path d="M0.5,1 L9,5 L0.5,9 L3,5 Z" fill="#d4552b"></path></marker><marker id="arrow-grn" viewBox="0 0 10 10" markerWidth="7.2" markerHeight="7.2" refX="8" refY="5" orient="auto-start-reverse"><path d="M0.5,1 L9,5 L0.5,9 L3,5 Z" fill="#009E73"></path></marker><marker id="arrow-dim" viewBox="0 0 10 10" markerWidth="7" markerHeight="7" refX="5" refY="5" orient="auto"><path d="M9,1 L1,5 L9,9" fill="none" stroke="#8f99a2" stroke-width="1.3"></path></marker><clipPath id="arena-clip"><rect x="70" y="86" width="210" height="210"></rect></clipPath></defs><rect width="1330" height="620" fill="#ffffff"></rect><text x="60" y="42" font-family="&#39;Helvetica Neue&#39;,Arial,sans-serif" font-size="23" fill="#26313d" text-anchor="start"><tspan font-weight="700">A</tspan><tspan font-weight="500" dx="10">Task environment &amp; sensing</tspan></text><g><path d="M175,254 L 234.39696961967002,313.39696961967 L 241.64168058446376,305.1359600367325 L 247.74613391789288,296 L 252.60588073094812,286.14540831866753 L 256.13776940828177,275.74079978861175 L 258.2813683554001,264.96420014648436 L 259,254 L 258.2813683554001,243.03579985351564 L 256.13776940828177,232.25920021138825 L 252.60588073094812,221.85459168133247 L 247.74613391789288,212 L 241.64168058446376,202.86403996326746 L 234.39696961967002,194.60303038033 Z" fill="#0072B2" fill-opacity="0.12" stroke="none" clip-path="url(#arena-clip)"></path><rect x="70" y="86" width="210" height="210" fill="#fbfcfd" stroke="#26313d" stroke-width="2.2"></rect><circle cx="175" cy="191" r="63" fill="none" stroke="#0072B2" stroke-width="1.6" stroke-dasharray="6 4" opacity="0.85"></circle><g fill="#c2cad1" stroke="#8f99a2" stroke-width="1"><rect x="174.7" y="107.5" width="6.8" height="7.9" rx="1.5"></rect><rect x="110.6" y="212.6" width="11.6" height="12.1" rx="1.5"></rect><rect x="235.5" y="171.7" width="7.5" height="10.3" rx="1.5"></rect><rect x="197.2" y="112.4" width="9.0" height="7.8" rx="1.5"></rect><rect x="190.0" y="251.4" width="11.1" height="11.4" rx="1.5"></rect><rect x="219.9" y="143.6" width="10.5" height="7.8" rx="1.5"></rect><rect x="114.9" y="237.4" width="13.5" height="9.8" rx="1.5"></rect><rect x="210.2" y="250.6" width="9.4" height="14.7" rx="1.5"></rect><rect x="189.3" y="116.4" width="13.3" height="6.8" rx="1.5"></rect><rect x="144.3" y="122.2" width="14.2" height="9.9" rx="1.5"></rect><rect x="117.1" y="245.6" width="13.3" height="13.8" rx="1.5"></rect><rect x="250.3" y="202.9" width="6.4" height="8.7" rx="1.5"></rect><rect x="126.4" y="127.4" width="9.5" height="6.9" rx="1.5"></rect><rect x="103.2" y="196.3" width="10.5" height="12.3" rx="1.5"></rect></g><line x1="175" y1="254" x2="280" y2="149" stroke="#E69F00" stroke-width="1.8"></line><circle cx="280" cy="149" r="3.1" fill="#E69F00" stroke="#fff" stroke-width="0.8"></circle><line x1="175" y1="254" x2="212.79999999999998" y2="254" stroke="#E69F00" stroke-width="1.8"></line><circle cx="212.79999999999998" cy="254" r="3.1" fill="#E69F00" stroke="#fff" stroke-width="0.8"></circle><line x1="175" y1="254" x2="217" y2="296" stroke="#E69F00" stroke-width="1.8"></line><circle cx="217" cy="296" r="3.1" fill="#E69F00" stroke="#fff" stroke-width="0.8"></circle><path d="M186,254 L168,246 L168,262 Z" fill="#26313d" stroke="#fff" stroke-width="0.9"></path><line x1="70" y1="312" x2="280" y2="312" stroke="#8f99a2" stroke-width="1.1" marker-start="url(#arrow-dim)" marker-end="url(#arrow-dim)"></line><text x="175" y="326" font-family="&#39;Helvetica Neue&#39;,Arial,sans-serif" font-size="16" font-weight="400" fill="#5c6b7a" text-anchor="middle" dominant-baseline="middle"><tspan x="175" dy="0">2 m</tspan></text><text x="72" y="76" font-family="&#39;Helvetica Neue&#39;,Arial,sans-serif" font-size="16" font-weight="400" fill="#0072B2" text-anchor="start" dominant-baseline="middle"><tspan x="72" dy="0">revisit-rich circuit</tspan></text><rect x="211" y="185" width="55" height="22" rx="2" fill="#fbfcfd" opacity="0.9"></rect><text x="215" y="196" font-family="&#39;Helvetica Neue&#39;,Arial,sans-serif" font-size="15.5" font-weight="400" fill="#2f6d9e" text-anchor="start" dominant-baseline="middle"><tspan x="215" dy="0">90° FoV</tspan></text><text x="242.5" y="274" font-family="&#39;Helvetica Neue&#39;,Arial,sans-serif" font-size="15.5" font-weight="400" fill="#c8860a" text-anchor="start" dominant-baseline="middle"><tspan x="242.5" dy="0">ToF beams</tspan></text></g><g transform="translate(0,18)"><text x="60" y="352" font-family="&#39;Helvetica Neue&#39;,Arial,sans-serif" font-size="23" fill="#26313d" text-anchor="start"><tspan font-weight="700">B</tspan><tspan font-weight="500" dx="10">MAV platform: sensor suite</tspan></text><g><path d="M196,422 C170,398 138,382 128,392 C120,402 140,420 168,430 C182,434 192,430 196,422 Z" fill="#e2e8ee" fill-opacity="0.7" stroke="#a1acb6" stroke-width="1"></path><path d="M200,416 C182,384 150,360 138,368 C128,376 146,404 176,420 C186,424 196,422 200,416 Z" fill="#e2e8ee" fill-opacity="0.85" stroke="#a1acb6" stroke-width="1.1"></path><path d="M146,368 C162,388 182,408 198,417" fill="none" stroke="#a1acb6" stroke-width="0.8" opacity="0.7"></path><path d="M84,438 C92,414 124,406 156,408 C194,410 208,422 208,438 C208,454 194,466 156,468 C124,470 92,462 84,438 Z" fill="#d3dbe2"></path><path d="M85,434 L74,438 L85,442 Z" fill="#a1acb6"></path><ellipse cx="210" cy="436" rx="30" ry="28" fill="#d3dbe2"></ellipse><circle cx="247" cy="431" r="16.5" fill="#d3dbe2"></circle><path d="M122,412 Q132,438 122,465" fill="none" stroke="#a1acb6" stroke-width="1" opacity="0.65"></path><path d="M146,409 Q156,438 146,467" fill="none" stroke="#a1acb6" stroke-width="1" opacity="0.6"></path><path d="M170,410 Q179,438 170,466" fill="none" stroke="#a1acb6" stroke-width="1" opacity="0.5"></path><path d="M198,460 C192,476 184,486 176,498" fill="none" stroke="#a1acb6" stroke-width="1.5" stroke-linecap="round"></path><path d="M214,464 C212,480 208,490 206,502" fill="none" stroke="#a1acb6" stroke-width="1.5" stroke-linecap="round"></path><path d="M230,460 C236,476 240,486 244,498" fill="none" stroke="#a1acb6" stroke-width="1.5" stroke-linecap="round"></path><path d="M258,420 C270,406 277,400 284,393" fill="none" stroke="#a1acb6" stroke-width="1.4" stroke-linecap="round"></path><circle cx="285" cy="392" r="2.2" fill="#a1acb6"></circle><line x1="248" y1="424" x2="248" y2="404" stroke="#0072B2" stroke-width="1"></line><circle cx="248" cy="424" r="5.5" fill="#0072B2" stroke="#fff" stroke-width="1.7"></circle><line x1="262" y1="438" x2="282" y2="438" stroke="#E69F00" stroke-width="1"></line><circle cx="262" cy="438" r="5.5" fill="#E69F00" stroke="#fff" stroke-width="1.7"></circle><circle cx="208" cy="436" r="5.5" fill="#009E73" stroke="#fff" stroke-width="1.7"></circle><circle cx="72" cy="518" r="6" fill="#0072B2" stroke="#fff" stroke-width="1.1"></circle><text x="88" y="518" font-family="&#39;Helvetica Neue&#39;,Arial,sans-serif" font-size="17" font-weight="400" fill="#26313d" text-anchor="start" dominant-baseline="middle"><tspan x="88" dy="0">Event camera (DVS, 256 px / 90°)</tspan></text><circle cx="72" cy="543" r="6" fill="#E69F00" stroke="#fff" stroke-width="1.1"></circle><text x="88" y="543" font-family="&#39;Helvetica Neue&#39;,Arial,sans-serif" font-size="17" font-weight="400" fill="#26313d" text-anchor="start" dominant-baseline="middle"><tspan x="88" dy="0">3-beam ToF rangefinder (0.1–2.83 m)</tspan></text><circle cx="72" cy="568" r="6" fill="#009E73" stroke="#fff" stroke-width="1.1"></circle><text x="88" y="568" font-family="&#39;Helvetica Neue&#39;,Arial,sans-serif" font-size="17" font-weight="400" fill="#26313d" text-anchor="start" dominant-baseline="middle"><tspan x="88" dy="0">IMU (2-axis accel. + pitch-rate gyro)</tspan></text></g></g><text x="410" y="42" font-family="&#39;Helvetica Neue&#39;,Arial,sans-serif" font-size="23" fill="#26313d" text-anchor="start"><tspan font-weight="700">C</tspan><tspan font-weight="500" dx="10">Spiking SLAM pipeline (neuro-symbolic loop closure)</tspan></text><g><path d="M500,108 L 545,108" fill="none" stroke="#26313d" stroke-width="1.7" stroke-linejoin="round" stroke-linecap="round" marker-end="url(#arrow-ink)"></path><path d="M663,108 L 857,108" fill="none" stroke="#26313d" stroke-width="1.7" stroke-linejoin="round" stroke-linecap="round" marker-end="url(#arrow-ink)"></path><path d="M500,210 L 545,210" fill="none" stroke="#26313d" stroke-width="1.7" stroke-linejoin="round" stroke-linecap="round" marker-end="url(#arrow-ink)"></path><path d="M663,210 L 775,210" fill="none" stroke="#26313d" stroke-width="1.7" stroke-linejoin="round" stroke-linecap="round" marker-end="url(#arrow-ink)"></path><path d="M843,108 L 843,183" fill="none" stroke="#26313d" stroke-dasharray="5,3.6" stroke-width="1.7" stroke-linejoin="round" stroke-linecap="round" marker-end="url(#arrow-ink)"></path><line x1="500" y1="346" x2="528" y2="346" stroke="#26313d" stroke-width="1.7"></line><line x1="528" y1="322" x2="528" y2="452" stroke="#26313d" stroke-width="1.7"></line><circle cx="528" cy="346" r="2.6" fill="#26313d"></circle><path d="M528,322 L 541,322" fill="none" stroke="#26313d" stroke-width="1.7" stroke-linejoin="round" stroke-linecap="round" marker-end="url(#arrow-ink)"></path><path d="M528,452 L 539,452" fill="none" stroke="#26313d" stroke-width="1.7" stroke-linejoin="round" stroke-linecap="round" marker-end="url(#arrow-ink)"></path><path d="M676,322 L 704,322" fill="none" stroke="#26313d" stroke-width="1.7" stroke-linejoin="round" stroke-linecap="round" marker-end="url(#arrow-ink)"></path><path d="M836,322 L 857,322" fill="none" stroke="#26313d" stroke-width="1.7" stroke-linejoin="round" stroke-linecap="round" marker-end="url(#arrow-ink)"></path><path d="M916,351 L 916,390" fill="none" stroke="#d4552b" stroke-width="2.6" stroke-linejoin="round" stroke-linecap="round" marker-end="url(#arrow-vrm)"></path><text x="930" y="371" font-family="&#39;Helvetica Neue&#39;,Arial,sans-serif" font-size="14.5" font-weight="400" fill="#d4552b" text-anchor="start" dominant-baseline="middle"><tspan x="930" dy="0">inject</tspan></text><path d="M670,452 L 858,452" fill="none" stroke="#26313d" stroke-width="1.7" stroke-linejoin="round" stroke-linecap="round" marker-end="url(#arrow-ink)"></path><path d="M975,108 L 1080,108 L 1080,322 L 1105,322" fill="none" stroke="#26313d" stroke-width="1.7" stroke-linejoin="round" stroke-linecap="round" marker-end="url(#arrow-ink)"></path><text x="1074" y="150" font-family="&#39;Helvetica Neue&#39;,Arial,sans-serif" font-size="13.5" font-weight="400" fill="#5c6b7a" text-anchor="end" dominant-baseline="middle"><tspan x="1074" dy="0">appearance key</tspan></text><path d="M925,196 L 1105,196" fill="none" stroke="#26313d" stroke-width="1.7" stroke-linejoin="round" stroke-linecap="round" marker-end="url(#arrow-ink)"></path><text x="1010" y="185" font-family="&#39;Helvetica Neue&#39;,Arial,sans-serif" font-size="13.5" font-weight="400" fill="#5c6b7a" text-anchor="middle" dominant-baseline="middle"><tspan x="1010" dy="0">velocity current (modeled)</tspan></text><path d="M974,452 L 1140,452 L 1140,210" fill="none" stroke="#26313d" stroke-width="1.7" stroke-linejoin="round" stroke-linecap="round" marker-end="url(#arrow-ink)"></path><path d="M1180,208 L 1180,224" fill="none" stroke="#26313d" stroke-dasharray="5,3.6" stroke-width="1.7" stroke-linecap="round" marker-end="url(#arrow-ink)"></path><rect x="978" y="217" width="96" height="34" rx="7" fill="#eef1f4" stroke="#c6cfd7" stroke-width="1.5"></rect><text x="1026" y="229" font-family="&#39;Helvetica Neue&#39;,Arial,sans-serif" font-size="12.5" fill="#26313d" text-anchor="middle" dominant-baseline="middle">vision × depth</text><text x="1026" y="243" font-family="&#39;Helvetica Neue&#39;,Arial,sans-serif" font-size="11" fill="#5c6b7a" text-anchor="middle" dominant-baseline="middle">STDP-gated</text><path d="M1074,234 L 1117,234" fill="none" stroke="#26313d" stroke-dasharray="5,3.6" stroke-width="1.7" stroke-linecap="round" marker-end="url(#arrow-ink)"></path><rect x="1125" y="228" width="5" height="14" rx="1" fill="#dde3e9" stroke="#c8ced4" stroke-width="0.5"></rect><rect x="1132" y="228" width="5" height="14" rx="1" fill="#dde3e9" stroke="#c8ced4" stroke-width="0.5"></rect><rect x="1139" y="228" width="5" height="14" rx="1" fill="#dde3e9" stroke="#c8ced4" stroke-width="0.5"></rect><rect x="1146" y="228" width="5" height="14" rx="1" fill="#0072B2" stroke="#c8ced4" stroke-width="0.5"></rect><rect x="1153" y="228" width="5" height="14" rx="1" fill="#dde3e9" stroke="#c8ced4" stroke-width="0.5"></rect><rect x="1160" y="228" width="5" height="14" rx="1" fill="#dde3e9" stroke="#c8ced4" stroke-width="0.5"></rect><rect x="1167" y="228" width="5" height="14" rx="1" fill="#dde3e9" stroke="#c8ced4" stroke-width="0.5"></rect><rect x="1174" y="228" width="5" height="14" rx="1" fill="#dde3e9" stroke="#c8ced4" stroke-width="0.5"></rect><rect x="1181" y="228" width="5" height="14" rx="1" fill="#0072B2" stroke="#c8ced4" stroke-width="0.5"></rect><rect x="1188" y="228" width="5" height="14" rx="1" fill="#dde3e9" stroke="#c8ced4" stroke-width="0.5"></rect><rect x="1195" y="228" width="5" height="14" rx="1" fill="#dde3e9" stroke="#c8ced4" stroke-width="0.5"></rect><rect x="1202" y="228" width="5" height="14" rx="1" fill="#dde3e9" stroke="#c8ced4" stroke-width="0.5"></rect><rect x="1209" y="228" width="5" height="14" rx="1" fill="#0072B2" stroke="#c8ced4" stroke-width="0.5"></rect><rect x="1216" y="228" width="5" height="14" rx="1" fill="#dde3e9" stroke="#c8ced4" stroke-width="0.5"></rect><rect x="1223" y="228" width="5" height="14" rx="1" fill="#dde3e9" stroke="#c8ced4" stroke-width="0.5"></rect><rect x="1230" y="228" width="5" height="14" rx="1" fill="#dde3e9" stroke="#c8ced4" stroke-width="0.5"></rect><text x="1188" y="254" font-family="&#39;Helvetica Neue&#39;,Arial,sans-serif" font-size="12.5" font-weight="400" fill="#26313d" text-anchor="start" dominant-baseline="middle"><tspan x="1188" dy="-6">place cells</tspan><tspan x="1188" dy="14">(sparse code)</tspan></text><path d="M1180,246 L 1180,290" fill="none" stroke="#26313d" stroke-dasharray="5,3.6" stroke-width="1.7" stroke-linecap="round" marker-end="url(#arrow-ink)"></path><path d="M1180,354 L 1180,522" fill="none" stroke="#26313d" stroke-width="1.7" stroke-linejoin="round" stroke-linecap="round" marker-end="url(#arrow-ink)"></path><path d="M681,580 L 725,580" fill="none" stroke="#26313d" stroke-width="1.4" stroke-linejoin="round" stroke-linecap="round" marker-end="url(#arrow-ink)"></path><path d="M995,580 L 1030,580" fill="none" stroke="#26313d" stroke-width="1.4" stroke-linejoin="round" stroke-linecap="round" marker-end="url(#arrow-ink)"></path><text x="835" y="146" font-family="&#39;Helvetica Neue&#39;,Arial,sans-serif" font-size="13.5" font-weight="400" fill="#5a6b7b" text-anchor="end" dominant-baseline="middle"><tspan x="835" dy="0">event rate</tspan></text><rect x="404" y="83" width="96" height="50" rx="9" ry="9" fill="#eef1f4" stroke="#ccd4dc" stroke-width="1.5"></rect><text x="452" y="108" font-family="&#39;Helvetica Neue&#39;,Arial,sans-serif" font-size="18" font-weight="400" fill="#26313d" text-anchor="middle" dominant-baseline="middle"><tspan x="452" dy="0">DVS events</tspan></text><circle cx="417" cy="96" r="4.5" fill="#0072B2" stroke="#fff" stroke-width="1.1"></circle><rect x="404" y="185" width="96" height="50" rx="9" ry="9" fill="#eef1f4" stroke="#ccd4dc" stroke-width="1.5"></rect><text x="452" y="210" font-family="&#39;Helvetica Neue&#39;,Arial,sans-serif" font-size="18" font-weight="400" fill="#26313d" text-anchor="middle" dominant-baseline="middle"><tspan x="452" dy="0">ToF depth</tspan></text><circle cx="417" cy="198" r="4.5" fill="#E69F00" stroke="#fff" stroke-width="1.1"></circle><rect x="404" y="317" width="96" height="58" rx="9" ry="9" fill="#eef1f4" stroke="#ccd4dc" stroke-width="1.5"></rect><text x="452" y="335.56" font-family="&#39;Helvetica Neue&#39;,Arial,sans-serif" font-size="16.5" font-weight="400" fill="#26313d" text-anchor="middle" dominant-baseline="middle"><tspan x="452" dy="0">IMU</tspan><tspan x="452" dy="20.88">accel + gyro</tspan></text><circle cx="417" cy="330" r="4.5" fill="#009E73" stroke="#fff" stroke-width="1.1"></circle><rect x="545" y="81" width="118" height="54" rx="9" ry="9" fill="#eef5fb" stroke="#9cc3e6" stroke-width="1.5"></rect><text x="604" y="96.69" font-family="&#39;Helvetica Neue&#39;,Arial,sans-serif" font-size="17.5" font-weight="400" fill="#26313d" text-anchor="middle" dominant-baseline="middle"><tspan x="604" dy="0">Spiking CSNN</tspan><tspan x="604" dy="22.619999999999997">(edge detect)</tspan></text><rect x="857" y="81" width="118" height="54" rx="9" ry="9" fill="#eef5fb" stroke="#9cc3e6" stroke-width="1.5"></rect><text x="916" y="96.69" font-family="&#39;Helvetica Neue&#39;,Arial,sans-serif" font-size="19.5" font-weight="400" fill="#26313d" text-anchor="middle" dominant-baseline="middle"><tspan x="916" dy="0">Sparse-hash</tspan><tspan x="916" dy="22.619999999999997">descriptor</tspan></text><rect x="545" y="183" width="118" height="54" rx="9" ry="9" fill="#fdf1e0" stroke="#f0c07a" stroke-width="1.5"></rect><text x="604" y="198.69" font-family="&#39;Helvetica Neue&#39;,Arial,sans-serif" font-size="16.5" font-weight="400" fill="#26313d" text-anchor="middle" dominant-baseline="middle"><tspan x="604" dy="0">ToF population</tspan><tspan x="604" dy="22.619999999999997">code (3-ray)</tspan></text><rect x="775" y="183" width="150" height="54" rx="9" ry="9" fill="#fdf1e0" stroke="#f0c07a" stroke-width="1.5" stroke-dasharray="5,3.6"></rect><text x="850" y="198.69" font-family="&#39;Helvetica Neue&#39;,Arial,sans-serif" font-size="19.5" font-weight="400" fill="#26313d" text-anchor="middle" dominant-baseline="middle"><tspan x="850" dy="0">Metric VO</tspan><tspan x="850" dy="22.619999999999997">(event × ToF)</tspan></text><rect x="536" y="292" width="144" height="60" rx="9" ry="9" fill="#fbf3df" stroke="#e8cf8f" stroke-width="1.5"></rect><text x="608" y="311.85" font-family="&#39;Helvetica Neue&#39;,Arial,sans-serif" font-size="15" font-weight="400" fill="#26313d" text-anchor="middle" dominant-baseline="middle"><tspan x="608" dy="0">Complementary filter</tspan><tspan x="608" dy="20.299999999999997">(arithmetic)</tspan></text><rect x="704" y="295" width="132" height="54" rx="9" ry="9" fill="#fbf3df" stroke="#e8cf8f" stroke-width="1.5"></rect><text x="770" y="322" font-family="&#39;Helvetica Neue&#39;,Arial,sans-serif" font-size="16" font-weight="400" fill="#26313d" text-anchor="middle" dominant-baseline="middle"><tspan x="770" dy="0">Gravity pitch θ</tspan></text><text x="827" y="328" font-family="&#39;Helvetica Neue&#39;,Arial,sans-serif" font-size="12" font-weight="400" fill="#26313d" text-anchor="start" dominant-baseline="middle">g</text><rect x="857" y="293" width="118" height="58" rx="9" ry="9" fill="#f4bd63" stroke="#d99f2f" stroke-width="1.5"></rect><text x="916" y="310.69" font-family="&#39;Helvetica Neue&#39;,Arial,sans-serif" font-size="19.5" font-weight="600" fill="#26313d" text-anchor="middle" dominant-baseline="middle"><tspan x="916" dy="0">Gravity</tspan><tspan x="916" dy="22.619999999999997">injection</tspan></text><rect x="538" y="427" width="132" height="50" rx="9" ry="9" fill="#eef1f4" stroke="#c6cfd7" stroke-width="1.5"></rect><text x="604" y="452" font-family="&#39;Helvetica Neue&#39;,Arial,sans-serif" font-size="15" font-weight="400" fill="#26313d" text-anchor="middle" dominant-baseline="middle"><tspan x="604" dy="0">Angular velocity ω</tspan></text><circle cx="916" cy="452" r="58" fill="none" stroke="#b9c2cb" stroke-width="1.2" stroke-dasharray="4 4"></circle><circle cx="974" cy="452" r="7" fill="#dde3e9" stroke="#26313d" stroke-width="0.8"></circle><circle cx="970.5021720055827" cy="471.83716831288876" r="7" fill="#dde3e9" stroke="#26313d" stroke-width="0.8"></circle><circle cx="960.4305777009007" cy="489.28168136181927" r="7" fill="#dde3e9" stroke="#26313d" stroke-width="0.8"></circle><circle cx="945" cy="502.2294734194974" r="7" fill="#dde3e9" stroke="#26313d" stroke-width="0.8"></circle><circle cx="926.071594304682" cy="509.1188496747081" r="7" fill="#dde3e9" stroke="#26313d" stroke-width="0.8"></circle><circle cx="905.928405695318" cy="509.1188496747081" r="7" fill="#dde3e9" stroke="#26313d" stroke-width="0.8"></circle><circle cx="887" cy="502.2294734194974" r="7" fill="#dde3e9" stroke="#26313d" stroke-width="0.8"></circle><circle cx="871.5694222990993" cy="489.28168136181927" r="7" fill="#dde3e9" stroke="#26313d" stroke-width="0.8"></circle><circle cx="861.4978279944173" cy="471.8371683128888" r="7" fill="#dde3e9" stroke="#26313d" stroke-width="0.8"></circle><circle cx="858" cy="452" r="7" fill="#dce3e9" stroke="#26313d" stroke-width="0.8"></circle><circle cx="861.4978279944173" cy="432.16283168711124" r="7" fill="#d7e1e6" stroke="#26313d" stroke-width="0.8"></circle><circle cx="871.5694222990993" cy="414.71831863818073" r="7" fill="#bad8d6" stroke="#26313d" stroke-width="0.8"></circle><circle cx="887" cy="401.7705265805026" r="7" fill="#6bc0ac" stroke="#26313d" stroke-width="0.8"></circle><circle cx="905.928405695318" cy="394.8811503252919" r="7" fill="#10a37b" stroke="#26313d" stroke-width="0.8"></circle><circle cx="926.071594304682" cy="394.8811503252919" r="7" fill="#10a37b" stroke="#26313d" stroke-width="0.8"></circle><circle cx="945" cy="401.7705265805026" r="7" fill="#6bc0ac" stroke="#26313d" stroke-width="0.8"></circle><circle cx="960.4305777009007" cy="414.7183186381807" r="7" fill="#bad8d6" stroke="#26313d" stroke-width="0.8"></circle><circle cx="970.5021720055827" cy="432.16283168711124" r="7" fill="#d7e1e6" stroke="#26313d" stroke-width="0.8"></circle><text x="916" y="443.01" font-family="&#39;Helvetica Neue&#39;,Arial,sans-serif" font-size="15.5" font-weight="600" fill="#26313d" text-anchor="middle" dominant-baseline="middle"><tspan x="916" dy="0">Ring attractor</tspan><tspan x="916" dy="17.98">(CANN)</tspan></text><path d="M982,390 L930,396" fill="none" stroke="#009E73" stroke-width="1.3" marker-end="url(#arrow-grn)"></path><text x="986" y="386" font-family="&#39;Helvetica Neue&#39;,Arial,sans-serif" font-size="14.5" font-weight="400" fill="#009E73" text-anchor="start" dominant-baseline="middle"><tspan x="986" dy="0">activity bump</tspan></text><text x="1180" y="74" font-family="&#39;Helvetica Neue&#39;,Arial,sans-serif" font-size="18" font-weight="600" fill="#26313d" text-anchor="middle" dominant-baseline="middle"><tspan x="1180" dy="0">Grid cells (2D position code)</tspan></text><rect x="1105" y="92" width="150" height="116" rx="8" fill="#fff" stroke="#26313d" stroke-dasharray="5,3.6" stroke-width="1.5"></rect><rect x="1116.5532467532469" y="101.94285714285714" width="13.257142857142858" height="13.257142857142858" rx="2.5" fill="#dde3e9" stroke="#c8ced4" stroke-width="0.5"></rect><rect x="1116.5532467532469" y="122.65714285714284" width="13.257142857142858" height="13.257142857142858" rx="2.5" fill="#dde3e9" stroke="#c8ced4" stroke-width="0.5"></rect><rect x="1116.5532467532469" y="143.37142857142857" width="13.257142857142858" height="13.257142857142858" rx="2.5" fill="#dde3e9" stroke="#c8ced4" stroke-width="0.5"></rect><rect x="1116.5532467532469" y="164.0857142857143" width="13.257142857142858" height="13.257142857142858" rx="2.5" fill="#dde3e9" stroke="#c8ced4" stroke-width="0.5"></rect><rect x="1116.5532467532469" y="184.8" width="13.257142857142858" height="13.257142857142858" rx="2.5" fill="#dde3e9" stroke="#c8ced4" stroke-width="0.5"></rect><rect x="1139.2805194805196" y="101.94285714285714" width="13.257142857142858" height="13.257142857142858" rx="2.5" fill="#dde3e9" stroke="#c8ced4" stroke-width="0.5"></rect><rect x="1139.2805194805196" y="122.65714285714284" width="13.257142857142858" height="13.257142857142858" rx="2.5" fill="#dde3e9" stroke="#c8ced4" stroke-width="0.5"></rect><rect x="1139.2805194805196" y="143.37142857142857" width="13.257142857142858" height="13.257142857142858" rx="2.5" fill="#dde3e9" stroke="#c8ced4" stroke-width="0.5"></rect><rect x="1139.2805194805196" y="164.0857142857143" width="13.257142857142858" height="13.257142857142858" rx="2.5" fill="#0072B2" stroke="#c8ced4" stroke-width="0.5"></rect><rect x="1139.2805194805196" y="184.8" width="13.257142857142858" height="13.257142857142858" rx="2.5" fill="#dde3e9" stroke="#c8ced4" stroke-width="0.5"></rect><rect x="1162.0077922077924" y="101.94285714285714" width="13.257142857142858" height="13.257142857142858" rx="2.5" fill="#dde3e9" stroke="#c8ced4" stroke-width="0.5"></rect><rect x="1162.0077922077924" y="122.65714285714284" width="13.257142857142858" height="13.257142857142858" rx="2.5" fill="#0072B2" stroke="#c8ced4" stroke-width="0.5"></rect><rect x="1162.0077922077924" y="143.37142857142857" width="13.257142857142858" height="13.257142857142858" rx="2.5" fill="#dde3e9" stroke="#c8ced4" stroke-width="0.5"></rect><rect x="1162.0077922077924" y="164.0857142857143" width="13.257142857142858" height="13.257142857142858" rx="2.5" fill="#dde3e9" stroke="#c8ced4" stroke-width="0.5"></rect><rect x="1162.0077922077924" y="184.8" width="13.257142857142858" height="13.257142857142858" rx="2.5" fill="#dde3e9" stroke="#c8ced4" stroke-width="0.5"></rect><rect x="1184.735064935065" y="101.94285714285714" width="13.257142857142858" height="13.257142857142858" rx="2.5" fill="#dde3e9" stroke="#c8ced4" stroke-width="0.5"></rect><rect x="1184.735064935065" y="122.65714285714284" width="13.257142857142858" height="13.257142857142858" rx="2.5" fill="#dde3e9" stroke="#c8ced4" stroke-width="0.5"></rect><rect x="1184.735064935065" y="143.37142857142857" width="13.257142857142858" height="13.257142857142858" rx="2.5" fill="#dde3e9" stroke="#c8ced4" stroke-width="0.5"></rect><rect x="1184.735064935065" y="164.0857142857143" width="13.257142857142858" height="13.257142857142858" rx="2.5" fill="#0072B2" stroke="#c8ced4" stroke-width="0.5"></rect><rect x="1184.735064935065" y="184.8" width="13.257142857142858" height="13.257142857142858" rx="2.5" fill="#dde3e9" stroke="#c8ced4" stroke-width="0.5"></rect><rect x="1207.4623376623379" y="101.94285714285714" width="13.257142857142858" height="13.257142857142858" rx="2.5" fill="#dde3e9" stroke="#c8ced4" stroke-width="0.5"></rect><rect x="1207.4623376623379" y="122.65714285714284" width="13.257142857142858" height="13.257142857142858" rx="2.5" fill="#dde3e9" stroke="#c8ced4" stroke-width="0.5"></rect><rect x="1207.4623376623379" y="143.37142857142857" width="13.257142857142858" height="13.257142857142858" rx="2.5" fill="#0072B2" stroke="#c8ced4" stroke-width="0.5"></rect><rect x="1207.4623376623379" y="164.0857142857143" width="13.257142857142858" height="13.257142857142858" rx="2.5" fill="#dde3e9" stroke="#c8ced4" stroke-width="0.5"></rect><rect x="1207.4623376623379" y="184.8" width="13.257142857142858" height="13.257142857142858" rx="2.5" fill="#dde3e9" stroke="#c8ced4" stroke-width="0.5"></rect><rect x="1230.1896103896106" y="101.94285714285714" width="13.257142857142858" height="13.257142857142858" rx="2.5" fill="#dde3e9" stroke="#c8ced4" stroke-width="0.5"></rect><rect x="1230.1896103896106" y="122.65714285714284" width="13.257142857142858" height="13.257142857142858" rx="2.5" fill="#dde3e9" stroke="#c8ced4" stroke-width="0.5"></rect><rect x="1230.1896103896106" y="143.37142857142857" width="13.257142857142858" height="13.257142857142858" rx="2.5" fill="#dde3e9" stroke="#c8ced4" stroke-width="0.5"></rect><rect x="1230.1896103896106" y="164.0857142857143" width="13.257142857142858" height="13.257142857142858" rx="2.5" fill="#dde3e9" stroke="#c8ced4" stroke-width="0.5"></rect><rect x="1230.1896103896106" y="184.8" width="13.257142857142858" height="13.257142857142858" rx="2.5" fill="#dde3e9" stroke="#c8ced4" stroke-width="0.5"></rect><rect x="1105" y="292" width="150" height="60" rx="9" ry="9" fill="#e9f1fb" stroke="#a7c7e8" stroke-width="1.5"></rect><text x="1180" y="322" font-family="&#39;Helvetica Neue&#39;,Arial,sans-serif" font-size="17.5" font-weight="600" fill="#26313d" text-anchor="middle" dominant-baseline="middle"><tspan x="1180" dy="0">Topological map</tspan></text><rect x="414" y="524" width="892" height="82" rx="11" fill="#f3effb" stroke="#cabce8" stroke-width="1.5"></rect><text x="860" y="540" font-family="&#39;Helvetica Neue&#39;,Arial,sans-serif" font-size="18" font-weight="700" fill="#5b4a86" text-anchor="middle" dominant-baseline="middle"><tspan x="860" dy="0">Appearance-keyed loop closure</tspan></text><rect x="431" y="565" width="250" height="34" rx="9" ry="9" fill="#ece5f7" stroke="#c7b6e6" stroke-width="1.5"></rect><text x="556" y="582" font-family="&#39;Helvetica Neue&#39;,Arial,sans-serif" font-size="14" font-weight="400" fill="#26313d" text-anchor="middle" dominant-baseline="middle"><tspan x="556" dy="0">Appearance-hash match  (cosine ≥ 0.60)</tspan></text><rect x="725" y="565" width="270" height="34" rx="9" ry="9" fill="#ece5f7" stroke="#c7b6e6" stroke-width="1.5"></rect><text x="860" y="582" font-family="&#39;Helvetica Neue&#39;,Arial,sans-serif" font-size="13.5" font-weight="400" fill="#26313d" text-anchor="middle" dominant-baseline="middle"><tspan x="860" dy="0">Geometric pose-gate  (&lt; 0.25 m, &lt; 0.35 rad)</tspan></text><rect x="1030" y="565" width="220" height="34" rx="9" ry="9" fill="#ece5f7" stroke="#c7b6e6" stroke-width="1.5"></rect><text x="1140" y="582" font-family="&#39;Helvetica Neue&#39;,Arial,sans-serif" font-size="15.5" font-weight="400" fill="#26313d" text-anchor="middle" dominant-baseline="middle"><tspan x="1140" dy="0">Pose-graph relaxation</tspan></text></g><g id="consumption-legend"><path d="M420,492 L 452,492" fill="none" stroke="#26313d" stroke-width="1.7" stroke-linecap="round"/><text x="459" y="492" font-family="&#39;Helvetica Neue&#39;,Arial,sans-serif" font-size="10.5" fill="#5c6b7a" dominant-baseline="middle">solid: feeds a reported number</text><path d="M420,510 L 452,510" fill="none" stroke="#26313d" stroke-width="1.7" stroke-dasharray="5,3.6" stroke-linecap="round"/><text x="459" y="510" font-family="&#39;Helvetica Neue&#39;,Arial,sans-serif" font-size="10.5" fill="#5c6b7a" dominant-baseline="middle">dashed: architectural capacity; not load-bearing for the reported numbers</text></g><path d="M843,237 L 843,400 L 869,421" fill="none" stroke="#26313d" stroke-dasharray="5,3.6" stroke-width="1.7" stroke-linejoin="round" stroke-linecap="round" marker-end="url(#arrow-ink)"></path><text x="838" y="262" font-family="&#39;Helvetica Neue&#39;,Arial,sans-serif" font-size="12.5" font-weight="400" fill="#5a6b7b" text-anchor="end" dominant-baseline="middle"><tspan x="838" dy="0">rotational</tspan><tspan x="838" dy="14">flow ω</tspan></text><path d="M1255,180 L 1272,180 L 1272,300 L 1257,300" fill="none" stroke="#26313d" stroke-width="1.7" stroke-linejoin="round" stroke-linecap="round" marker-end="url(#arrow-ink)"></path><text x="1281" y="249" font-family="&#39;Helvetica Neue&#39;,Arial,sans-serif" font-size="12.5" font-weight="400" fill="#5a6b7b" text-anchor="start" dominant-baseline="middle"><tspan x="1281" dy="0">pose</tspan><tspan x="1281" dy="14">estimate</tspan></text></svg>